HIERARCHY
ROOT Hips
{
	OFFSET 0.000000 0.000000 0.000000
	CHANNELS 6 Xposition Yposition Zposition Zrotation Yrotation Xrotation 
	JOINT LHipJoint
	{
		OFFSET 0.000000 0.000000 0.000000
		CHANNELS 3 Zrotation Yrotation Xrotation
		JOINT LeftUpLeg
		{
			OFFSET 1.363060 -1.794630 0.839290
			CHANNELS 3 Zrotation Yrotation Xrotation
			JOINT LeftLeg
			{
				OFFSET 2.448110 -6.726130 0.000000
				CHANNELS 3 Zrotation Yrotation Xrotation
				JOINT LeftFoot
				{
					OFFSET 2.562200 -7.039590 0.000000
					CHANNELS 3 Zrotation Yrotation Xrotation
					JOINT LeftToeBase
					{
						OFFSET 0.157640 -0.433110 2.322550
						CHANNELS 3 Zrotation Yrotation Xrotation
						End Site
						{
							OFFSET 0.000000 0.000000 0.000000
						}
					}
				}
			}
		}
	}
	JOINT RHipJoint
	{
		OFFSET 0.000000 0.000000 0.000000
		CHANNELS 3 Zrotation Yrotation Xrotation
		JOINT RightUpLeg
		{
			OFFSET -1.305520 -1.794630 0.839290
			CHANNELS 3 Zrotation Yrotation Xrotation
			JOINT RightLeg
			{
				OFFSET -2.542530 -6.985550 0.000000
				CHANNELS 3 Zrotation Yrotation Xrotation
				JOINT RightFoot
				{
					OFFSET -2.568260 -7.056230 0.000000
					CHANNELS 3 Zrotation Yrotation Xrotation
					JOINT RightToeBase
					{
						OFFSET -0.164730 -0.452590 2.363150
						CHANNELS 3 Zrotation Yrotation Xrotation
						End Site
						{
							OFFSET 0.000000 0.000000 0.000000
						}
					}
				}
			}
		}
	}
}
MOTION
Frames: 33
Frame Time: 0.008333
4.443423 17.385599 1.571370 179.012865 -60.630147 -166.442739 -11.106539 2.558984 -1.715285 -11.664293 24.287713 -16.311874 -2.767904 -0.816128 3.333229 2.441283 16.369292 -3.793295 1.287000 0.000000 -26.577900 9.518957 -0.905351 4.325760 -1.204704 7.619745 -19.691107 2.520898 0.753572 1.945428 1.305714 7.548955 9.671994 1.579600 0.000001 -68.716700
4.441551 17.384397 1.584149 178.702929 -61.442186 -165.990644 -11.068831 2.543979 -1.602262 -11.859012 23.562137 -16.571523 -2.762758 -0.813673 3.517914 2.431698 16.214258 -3.855112 1.266200 -0.000000 -26.552400 9.548360 -0.870874 4.226004 -1.337254 7.230311 -19.920927 2.464529 0.727430 2.382342 1.240527 7.058072 9.316082 1.407000 -0.000000 -68.652700
4.438933 17.382971 1.596880 178.349485 -62.353688 -165.487250 -11.029165 2.526488 -1.469673 -12.045852 22.735633 -16.835509 -2.753171 -0.811627 3.718393 2.421712 16.050110 -3.919015 1.245300 -0.000001 -26.516000 9.578707 -0.835041 4.117371 -1.471823 6.801444 -20.140850 2.403826 0.700979 2.838185 1.165145 6.505741 8.928913 1.219300 0.000000 -68.573801
4.435645 17.381332 1.609631 177.941631 -63.373899 -164.924549 -10.987653 2.506122 -1.316566 -12.220856 21.800101 -17.098071 -2.738245 -0.810138 3.930612 2.411661 15.880024 -3.982499 1.225400 0.000001 -26.466600 9.609945 -0.797493 3.997976 -1.606956 6.329051 -20.339665 2.338876 0.674923 3.303050 1.078224 5.886931 8.513660 1.017000 -0.000000 -68.476900
4.431704 17.379478 1.622496 177.465472 -64.510590 -164.290753 -10.944548 2.482633 -1.142112 -12.380569 20.748639 -17.354275 -2.717289 -0.809265 4.150963 2.401742 15.706475 -4.042814 1.207600 0.000000 -26.405000 9.641884 -0.757789 3.865710 -1.741039 5.807661 -20.506320 2.269986 0.650065 3.766655 0.978565 5.198390 8.073369 0.801000 0.000000 -68.359500
4.427030 17.377422 1.635550 176.904012 -65.770253 -163.569024 -10.900413 2.456110 -0.945553 -12.522145 19.576964 -17.600355 -2.689931 -0.808973 4.376148 2.391874 15.530597 -4.096223 1.192900 0.000000 -26.333200 9.674147 -0.715686 3.718590 -1.872573 5.230977 -20.630194 2.197657 0.627240 4.218695 0.865171 4.438659 7.612357 0.572900 -0.000000 -68.217900
4.421678 17.375180 1.648774 176.228881 -67.158561 -162.732705 -10.856088 2.426722 -0.726427 -12.643623 18.286214 -17.838188 -2.656723 -0.808806 4.607458 2.381092 15.347756 -4.140743 1.181300 0.000000 -26.258300 9.705858 -0.671029 3.555515 -1.999582 4.593258 -20.703723 2.122508 0.607394 4.649819 0.737110 3.606429 7.134044 0.334200 0.000000 -68.049700
4.415743 17.372765 1.662176 175.393918 -68.678506 -161.739412 -10.812178 2.394594 -0.485055 -12.744547 16.874119 -18.059608 -2.617478 -0.808806 4.837585 2.369173 15.160279 -4.169367 1.174500 0.000001 -26.188800 9.736769 -0.623194 3.373489 -2.123575 3.886172 -20.715854 2.044770 0.590764 5.052212 0.593864 2.704980 6.641919 0.087700 -0.000000 -67.856600
4.408946 17.370155 1.675722 174.341141 -70.333872 -160.527802 -10.771137 2.360244 -0.220951 -12.825361 15.353589 -18.278672 -2.574657 -0.807958 5.076599 2.352768 14.948788 -4.181139 1.170700 0.000000 -26.137500 9.764389 -0.573522 3.173734 -2.241699 3.103788 -20.665700 1.965577 0.578444 5.419242 0.434777 1.733775 6.139187 -0.165300 -0.000001 -67.635400
4.401320 17.367312 1.689305 172.964329 -72.126019 -158.994058 -10.735582 2.323288 0.065535 -12.887894 13.733763 -18.499744 -2.529914 -0.805917 5.325757 2.329152 14.700315 -4.170839 1.169399 -0.000000 -26.118600 9.786267 -0.523117 2.956160 -2.355059 2.239344 -20.550891 1.885412 0.570609 5.746842 0.259267 0.694581 5.627754 -0.422900 0.000000 -67.388900
4.392746 17.364220 1.702755 171.077014 -74.051431 -156.953741 -10.708871 2.281817 0.373302 -12.935962 12.015429 -18.711067 -2.483577 -0.803713 5.572580 2.296890 14.413345 -4.127540 1.172900 -0.000000 -26.142200 9.799498 -0.473696 2.719223 -2.471217 1.286833 -20.364905 1.803964 0.566244 6.031876 0.066755 -0.408968 5.109605 -0.682300 -0.000000 -67.125399
4.383152 17.360797 1.715885 168.343451 -76.105797 -154.073094 -10.697495 2.230981 0.701179 -12.975037 10.205622 -18.910136 -2.437128 -0.802634 5.812515 2.252572 14.074863 -4.042362 1.181300 -0.000001 -26.219600 9.797834 -0.430176 2.463646 -2.597214 0.239636 -20.107120 1.721193 0.563630 6.273820 -0.143889 -1.576145 4.585558 -0.941700 -0.000001 -66.850600
4.371990 17.356924 1.728640 164.110876 -78.282949 -149.693895 -10.712791 2.160107 1.048454 -13.011645 8.317783 -19.106626 -2.393281 -0.805421 6.052864 2.190080 13.656673 -3.910206 1.191699 0.000000 -26.359900 9.769989 -0.404907 2.195468 -2.737988 -0.907928 -19.786103 1.637589 0.559718 6.472817 -0.375242 -2.811592 4.054775 -1.200300 -0.000000 -66.566200
4.359160 17.352523 1.740887 156.862457 -80.568550 -142.302215 -10.764011 2.041784 1.409894 -13.054512 6.344125 -19.278612 -2.353184 -0.821330 6.286028 2.103615 13.145870 -3.716016 1.204800 -0.000000 -26.565301 9.706426 -0.422742 1.921793 -2.907354 -2.170418 -19.401655 1.551287 0.543942 6.627102 -0.633000 -4.123245 3.514813 -1.456100 0.000000 -66.278600
4.344441 17.347468 1.752550 142.722002 -82.926164 -128.021830 -10.814350 1.823269 1.770667 -13.096162 4.267059 -19.393997 -2.323797 -0.871687 6.523673 1.981599 12.510243 -3.443228 1.219900 0.000000 -26.833600 9.640632 -0.533720 1.667890 -3.097999 -3.576076 -18.955441 1.455794 0.491223 6.727033 -0.930629 -5.537449 2.959292 -1.707500 0.000000 -65.990200
4.327480 17.341629 1.763734 112.900741 -85.019713 -98.061041 -10.586635 1.532977 2.103780 -13.035299 2.095471 -19.438321 -2.330995 -0.970719 6.781234 1.819831 11.716042 -3.097102 1.234500 -0.000000 -27.158700 9.837759 -0.718855 1.472343 -3.183619 -5.122824 -18.439815 1.335165 0.381347 6.769479 -1.274491 -7.076071 2.393540 -1.953500 0.000000 -65.698700
4.308507 17.334939 1.774351 71.026225 -85.523491 -56.050173 -9.896945 1.547230 2.456674 -12.788973 -0.032145 -19.519090 -2.380297 -1.008838 6.903437 1.682014 10.918381 -2.740193 1.249600 0.000000 -27.529400 10.478267 -0.627048 1.226987 -3.065264 -6.621331 -17.834727 1.200806 0.337201 6.841899 -1.586299 -8.585211 1.877660 -2.191800 0.000000 -65.402700
4.281993 17.327082 1.792354 38.437693 -83.781670 -23.187981 -9.358181 1.863043 3.181621 -12.211983 -3.094253 -20.117527 -2.351995 -0.907559 7.225287 1.608414 10.224100 -2.486237 1.248000 -0.000000 -27.909500 10.944661 -0.249250 0.665602 -2.637416 -9.091544 -17.142053 1.189843 0.468353 6.757076 -1.795422 -9.865734 1.515915 -2.412400 0.000001 -65.142200
4.259474 17.318425 1.802584 29.226686 -81.194002 -13.840480 -9.259913 1.964259 3.649728 -12.162329 -5.249056 -20.188047 -2.370735 -0.865226 7.055200 1.470869 9.400379 -1.983687 1.253400 0.000000 -28.354000 11.011753 -0.053185 0.261199 -2.844424 -10.674426 -16.431185 1.098862 0.520404 6.877088 -2.072854 -11.318543 1.058536 -2.633299 -0.000000 -64.814900
4.235460 17.308855 1.812711 24.264971 -78.159974 -8.753986 -9.206281 1.984216 4.120535 -12.129139 -7.479835 -20.158002 -2.397774 -0.847558 6.803264 1.310290 8.502397 -1.392125 1.249800 0.000000 -28.813800 11.031098 0.073049 -0.139367 -3.106457 -12.366237 -15.656292 1.009555 0.544735 6.974332 -2.369786 -12.821574 0.620051 -2.845500 0.000000 -64.447900
4.210577 17.298456 1.822742 21.270837 -74.854448 -5.653067 -9.154904 1.957838 4.592846 -12.096227 -9.764741 -20.025373 -2.437025 -0.844859 6.457227 1.135394 7.554291 -0.722405 1.234300 0.000000 -29.283600 11.042385 0.162071 -0.543485 -3.404490 -14.147368 -14.808217 0.923053 0.550384 7.051867 -2.674990 -14.351131 0.216721 -3.050300 -0.000000 -64.026100
4.184968 17.287318 1.832883 19.297699 -71.367055 -3.590422 -9.096264 1.901825 5.066727 -12.056979 -12.077821 -19.802754 -2.489805 -0.851004 6.023927 0.951242 6.565246 0.012325 1.201900 0.000000 -29.768699 11.054321 0.226364 -0.951760 -3.726376 -16.000759 -13.889219 0.842473 0.543749 7.107651 -2.980513 -15.890917 -0.139533 -3.250500 -0.000001 -63.531700
4.159425 17.275564 1.843058 17.906990 -67.754378 -2.137751 -9.026320 1.824001 5.538227 -12.011888 -14.398486 -19.489499 -2.556145 -0.861993 5.512119 0.762654 5.549119 0.801101 1.149600 0.000000 -30.278601 11.070627 0.272294 -1.366384 -4.070177 -17.915396 -12.894775 0.770238 0.528127 7.137147 -3.279293 -17.422925 -0.440191 -3.448400 -0.000000 -62.942100
4.134453 17.263370 1.852887 16.875137 -64.060218 -1.079889 -8.941842 1.729350 6.001398 -11.966950 -16.704150 -19.085441 -2.636055 -0.874971 4.937336 0.573629 4.516846 1.631864 1.074800 -0.000000 -30.821200 11.094937 0.303432 -1.789286 -4.438879 -19.884997 -11.819380 0.708116 0.506047 7.130821 -3.565192 -18.930306 -0.676852 -3.647200 0.000000 -62.249900
4.110356 17.250881 1.862182 16.067613 -60.324227 -0.286190 -8.841545 1.621951 6.451050 -11.926251 -18.965807 -18.606353 -2.728970 -0.887545 4.327796 0.386753 3.469566 2.487380 0.973700 0.000000 -31.413500 11.129311 0.320380 -2.217832 -4.829159 -21.894773 -10.669041 0.657500 0.480355 7.081127 -3.834223 -20.401794 -0.846589 -3.850800 0.000000 -61.441400
4.087186 17.238302 1.870673 15.410764 -56.583689 0.316373 -8.724708 1.505186 6.881488 -11.897252 -21.155658 -18.068168 -2.833972 -0.898059 3.713256 0.204284 2.408501 3.349587 0.844001 0.000000 -32.068300 11.175783 0.323595 -2.649076 -5.241436 -23.928663 -9.451525 0.618702 0.453582 6.981682 -4.083606 -21.827185 -0.950317 -4.062200 -0.000000 -60.503500
4.065106 17.225838 1.878083 14.857674 -52.876292 0.773681 -8.591918 1.382012 7.287291 -11.887818 -23.246262 -17.490288 -2.949416 -0.905182 3.124934 0.028118 1.334764 4.199983 0.684500 0.000000 -32.796300 11.235304 0.313471 -3.079132 -5.675484 -25.966761 -8.178839 0.591139 0.428126 6.828315 -4.312010 -23.199516 -0.991109 -4.284200 0.000000 -59.433600
4.043994 17.213709 1.884267 14.381179 -49.239711 1.117223 -8.444502 1.255535 7.664915 -11.904847 -25.214051 -16.894700 -3.073176 -0.908239 2.591492 -0.140138 0.251257 5.020584 0.495500 -0.000000 -33.600700 11.308227 0.290553 -3.502476 -6.130757 -27.986540 -6.869000 0.573635 0.406143 6.621773 -4.519257 -24.513087 -0.976348 -4.517900 0.000000 -58.233600
4.023813 17.202131 1.889217 13.963061 -45.713656 1.368788 -8.285006 1.129053 8.011613 -11.952212 -27.038413 -16.299755 -3.202388 -0.906898 2.134739 -0.298940 -0.835406 5.794414 0.279900 -0.000000 -34.470700 11.393672 0.255564 -3.914036 -6.604015 -29.966399 -5.540586 0.564765 0.389511 6.362493 -4.705167 -25.761893 -0.908335 -4.765700 -0.000000 -56.944700
4.004803 17.191246 1.892841 13.593188 -42.339311 1.544583 -8.117471 1.005016 8.325543 -12.031715 -28.704388 -15.725214 -3.333660 -0.900847 1.772053 -0.446772 -1.913563 6.508104 0.042600 0.000000 -35.415800 11.488748 0.209808 -4.303702 -7.086875 -31.854513 -4.216890 0.560062 0.379130 6.067767 -4.874705 -26.953822 -0.815940 -5.020600 -0.000000 -55.496800
3.986727 17.181216 1.895439 13.266123 -39.154803 1.658367 -7.944418 0.887668 8.610557 -12.140875 -30.207203 -15.186805 -3.463943 -0.890890 1.506071 -0.582246 -2.965513 7.152297 -0.208300 0.000000 -36.392600 11.591899 0.155233 -4.666417 -7.574664 -33.647890 -2.927223 0.559949 0.375801 5.744055 -5.025292 -28.070471 -0.695071 -5.282500 0.000000 -54.014000
3.970000 17.172124 1.897179 12.977724 -36.200032 1.719188 -7.771152 0.779745 8.868475 -12.274775 -31.543936 -14.694223 -3.589645 -0.877379 1.333044 -0.704033 -3.969958 7.721705 -0.463800 0.000000 -37.381200 11.698450 0.093974 -4.993966 -8.055793 -35.309237 -1.696081 0.561280 0.379257 5.408820 -5.159547 -29.110434 -0.562871 -5.544500 -0.000000 -52.506900
3.954971 17.163988 1.898229 12.727431 -33.510968 1.734101 -7.602916 0.683780 9.103350 -12.426406 -32.719796 -14.252721 -3.707604 -0.861227 1.238968 -0.810936 -4.901612 8.214970 -0.712900 -0.000000 -38.345701 11.803408 0.028937 -5.280081 -8.521188 -36.814935 -0.548600 0.562432 0.388464 5.081775 -5.278042 -30.062683 -0.433450 -5.797100 0.000000 -51.010600
